<svg width="127" height="100" viewBox="0 0 127 100" fill="none" xmlns="http://www.w3.org/2000/svg">
<g id="Group 164">
<path id="Vector" d="M22.6141 39.7725C22.5535 39.7725 22.4854 39.78 22.4248 39.7952C19.5687 40.5225 16.8339 41.6588 14.2884 43.174C14.0991 43.2876 13.9703 43.4694 13.9324 43.6815C13.8945 43.8937 13.9475 44.1133 14.0763 44.2876C16.1824 46.9921 15.94 50.8633 13.5157 53.2875C11.0915 55.7118 7.22031 55.9542 4.51579 53.8481C4.34154 53.7118 4.12185 53.6587 3.90973 53.7042C3.69761 53.7421 3.50822 53.8784 3.40216 54.0602C1.90974 56.5754 0.780963 59.3102 0.0385435 62.1966C-0.0144865 62.4087 0.0233921 62.6284 0.144603 62.8102C0.265815 62.992 0.462783 63.1056 0.674903 63.1359C4.06882 63.5678 6.62941 66.4693 6.62941 69.8935C6.62941 73.3253 4.06124 76.2343 0.659751 76.651C0.440056 76.6813 0.250663 76.7949 0.129452 76.9768C0.00824067 77.1586 -0.0296379 77.3783 0.0233921 77.5904C0.75066 80.4389 1.88702 83.1813 3.40216 85.7267C3.51579 85.9161 3.69761 86.0449 3.90973 86.0828C4.12185 86.1206 4.34154 86.0676 4.51579 85.9388C7.22031 83.8328 11.0915 84.0752 13.5157 86.4994C15.94 88.9237 16.1824 92.7948 14.0763 95.4994C13.94 95.6736 13.8869 95.8933 13.9324 96.1054C13.9703 96.3175 14.0991 96.5069 14.2884 96.613C16.796 98.1054 19.5384 99.2342 22.4248 99.9766C22.6369 100.03 22.8566 99.9918 23.0384 99.8705C23.2202 99.7493 23.3338 99.5524 23.3641 99.3402C23.796 95.9463 26.6975 93.3857 30.1217 93.3857C33.5459 93.3857 36.4474 95.9463 36.8792 99.3402C36.9095 99.5524 37.0231 99.7493 37.205 99.8705C37.3868 99.9918 37.6065 100.03 37.8186 99.9766C40.7049 99.2418 43.4398 98.1054 45.9549 96.613C46.1443 96.4994 46.2731 96.3175 46.311 96.1054C46.3488 95.8933 46.2958 95.6736 46.167 95.4994C44.061 92.7948 44.3034 88.9237 46.7276 86.4994C49.1519 84.0752 53.023 83.8328 55.7276 85.9388C55.9018 86.0752 56.1215 86.1282 56.3336 86.0828C56.5457 86.0449 56.7351 85.9085 56.8412 85.7267C58.3336 83.2116 59.4624 80.4767 60.2048 77.5904C60.2578 77.3783 60.22 77.1586 60.0987 76.9768C59.9775 76.7949 59.7806 76.6813 59.5685 76.651C56.1745 76.2192 53.6139 73.3177 53.6139 69.8935C53.6139 66.4617 56.1821 63.5526 59.5836 63.1359C59.8033 63.1056 59.9927 62.992 60.1139 62.8102C60.2351 62.6284 60.273 62.4087 60.22 62.1966C59.4927 59.3405 58.3563 56.6057 56.8412 54.0602C56.7276 53.8709 56.5457 53.7421 56.3336 53.7042C56.1215 53.6663 55.9018 53.7193 55.7276 53.8481C53.023 55.9542 49.1519 55.7118 46.7276 53.2875C44.3034 50.8633 44.061 46.9921 46.167 44.2876C46.3034 44.1133 46.3564 43.8937 46.311 43.6815C46.2731 43.4694 46.1443 43.28 45.9549 43.174C43.4398 41.6815 40.7049 40.5528 37.8186 39.8103C37.6065 39.7573 37.3868 39.7952 37.205 39.9164C37.0231 40.0376 36.9095 40.2346 36.8792 40.4467C36.4474 43.8406 33.5459 46.4012 30.1217 46.4012C26.6899 46.4012 23.7808 43.833 23.3641 40.4316C23.3338 40.2119 23.2202 40.0225 23.0384 39.9013C22.9172 39.8179 22.7657 39.7725 22.6141 39.7725ZM15.7733 44.0679C17.7505 42.9618 19.849 42.0982 22.0157 41.477C22.8793 45.2042 26.2278 47.9239 30.1293 47.9239C34.0232 47.9239 37.3716 45.2118 38.2353 41.4921C40.4246 42.1134 42.5231 42.977 44.4852 44.0679C42.4625 47.3179 42.9095 51.5981 45.667 54.3557C48.4246 57.1133 52.7124 57.5602 55.9548 55.5375C57.0609 57.5148 57.9245 59.6132 58.5457 61.7799C54.8185 62.6435 52.0988 65.992 52.0988 69.8935C52.0988 73.7874 54.8109 77.1359 58.5306 77.9995C57.9094 80.1889 57.0457 82.2873 55.9548 84.2419C52.7049 82.2192 48.4246 82.6661 45.667 85.4237C42.9095 88.1812 42.4625 92.4691 44.4852 95.7115C42.5231 96.8024 40.4322 97.666 38.2428 98.2872C37.3716 94.5676 34.0307 91.8555 30.1368 91.8555C26.2429 91.8555 22.8945 94.5676 22.0308 98.2872C19.8339 97.666 17.743 96.8024 15.7809 95.7115C17.8036 92.4615 17.3566 88.1812 14.5991 85.4237C11.8415 82.6661 7.55364 82.2192 4.31124 84.2419C3.20519 82.2646 2.34156 80.1661 1.72035 77.9995C5.4476 77.1359 8.16728 73.7874 8.16728 69.8859C8.16728 65.992 5.45517 62.6435 1.7355 61.7799C2.35671 59.5905 3.22034 57.492 4.31124 55.5375C7.56122 57.5602 11.8415 57.1133 14.5991 54.3557C17.349 51.5981 17.796 47.3179 15.7733 44.0679ZM30.1293 61.5602C25.5308 61.5602 21.796 65.295 21.796 69.8935C21.796 74.4919 25.5308 78.2268 30.1293 78.2268C34.7277 78.2268 38.4625 74.4919 38.4625 69.8935C38.4625 65.295 34.7277 61.5602 30.1293 61.5602ZM30.1293 76.7116C26.3717 76.7116 23.3111 73.651 23.3111 69.8935C23.3111 66.1359 26.3717 63.0753 30.1293 63.0753C33.8868 63.0753 36.9474 66.1359 36.9474 69.8935C36.9474 73.651 33.8868 76.7116 30.1293 76.7116Z" fill="black"/>
<path id="Vector_2" d="M88.432 3.8147e-06C88.3714 3.8147e-06 88.3032 0.0075798 88.2426 0.0227318C85.3942 0.75 82.6518 1.88635 80.1063 3.4015C79.9169 3.51513 79.7881 3.69695 79.7503 3.90907C79.7124 4.12119 79.7654 4.34089 79.8942 4.51513C82.0002 7.21965 81.7578 11.0908 79.3336 13.5151C76.9094 15.9393 73.0382 16.1817 70.3337 14.0757C70.1594 13.9393 69.9397 13.8863 69.7276 13.9317C69.5155 13.9696 69.3261 14.106 69.22 14.2878C67.7276 16.7953 66.5988 19.5378 65.8564 22.4241C65.8034 22.6362 65.8413 22.8559 65.9625 23.0377C66.0837 23.2196 66.2807 23.3332 66.4928 23.3635C69.8867 23.7877 72.4473 26.6968 72.4473 30.121C72.4473 33.5528 69.8791 36.4619 66.4776 36.8785C66.2579 36.9088 66.0685 37.0225 65.9473 37.2043C65.8261 37.3861 65.7882 37.6058 65.8413 37.8179C66.5685 40.674 67.7049 43.4088 69.22 45.9542C69.3337 46.1436 69.5155 46.2724 69.7276 46.3103C69.9397 46.3482 70.1594 46.2951 70.3337 46.1664C73.0382 44.0603 76.9094 44.3027 79.3336 46.727C81.7578 49.1512 82.0002 53.0224 79.8942 55.7269C79.7578 55.9011 79.7048 56.1208 79.7503 56.333C79.7881 56.5451 79.9169 56.7345 80.1063 56.8405C82.6139 58.3329 85.3563 59.4617 88.2426 60.2041C88.4547 60.2572 88.6744 60.2193 88.8563 60.0981C89.0381 59.9769 89.1517 59.7799 89.182 59.5678C89.6138 56.1739 92.5153 53.6133 95.9395 53.6133C99.3638 53.6133 102.265 56.1739 102.697 59.5678C102.727 59.7799 102.841 59.9769 103.023 60.0981C103.205 60.2193 103.424 60.2572 103.636 60.2041C106.523 59.4693 109.258 58.3329 111.773 56.8405C111.962 56.7269 112.091 56.5451 112.129 56.333C112.167 56.1208 112.114 55.9011 111.985 55.7269C109.879 53.0224 110.121 49.1512 112.545 46.727C114.97 44.3027 118.841 44.0603 121.545 46.1664C121.72 46.3027 121.939 46.3558 122.151 46.3103C122.364 46.2724 122.553 46.1361 122.659 45.9542C124.151 43.4391 125.28 40.7043 126.023 37.8179C126.076 37.6058 126.038 37.3861 125.917 37.2043C125.795 37.0225 125.598 36.9088 125.386 36.8785C121.992 36.4467 119.432 33.5452 119.432 30.121C119.432 26.6892 122 23.7801 125.401 23.3635C125.621 23.3332 125.811 23.2196 125.932 23.0377C126.053 22.8559 126.091 22.6362 126.038 22.4241C125.311 19.5756 124.174 16.8332 122.659 14.2878C122.545 14.0984 122.364 13.9696 122.151 13.9317C121.939 13.8939 121.72 13.9469 121.545 14.0757C118.841 16.1817 114.97 15.9393 112.545 13.5151C110.121 11.0908 109.879 7.21965 111.985 4.51513C112.121 4.34089 112.174 4.12119 112.129 3.90907C112.091 3.69695 111.962 3.50756 111.773 3.4015C109.258 1.90908 106.523 0.780304 103.636 0.0378876C103.424 -0.0151443 103.205 0.0227356 103.023 0.143944C102.841 0.265156 102.727 0.462124 102.697 0.674244C102.265 4.06816 99.3638 6.62875 95.9395 6.62875C92.5078 6.62875 89.5987 4.06058 89.182 0.659088C89.1517 0.439392 89.0381 0.250004 88.8563 0.128792C88.735 0.0454597 88.5835 3.8147e-06 88.432 3.8147e-06ZM81.5912 4.29543C83.576 3.18938 85.6669 2.32575 87.8335 1.70454C88.6972 5.43179 92.0456 8.15147 95.9471 8.15147C99.841 8.15147 103.189 5.43937 104.053 1.71969C106.243 2.3409 108.341 3.20453 110.303 4.29543C108.28 7.54541 108.727 11.8257 111.485 14.5832C114.242 17.3408 118.53 17.7878 121.773 15.765C122.879 17.7423 123.742 19.8408 124.364 22.0074C120.636 22.8711 117.917 26.2195 117.917 30.121C117.917 34.0149 120.629 37.3634 124.348 38.227C123.727 40.4164 122.864 42.5149 121.773 44.4694C118.523 42.4467 114.242 42.8937 111.485 45.6512C108.727 48.4088 108.28 52.6966 110.303 55.939C108.341 57.0299 106.25 57.8936 104.061 58.5148C103.189 54.7951 99.8486 52.083 95.9547 52.083C92.0608 52.083 88.7123 54.7951 87.8487 58.5148C85.6517 57.8936 83.5608 57.0299 81.5987 55.939C83.6214 52.689 83.1745 48.4088 80.4169 45.6512C77.6594 42.8937 73.3715 42.4467 70.1291 44.4694C69.0231 42.4921 68.1594 40.3937 67.5382 38.227C71.2655 37.3634 73.9851 34.0149 73.9851 30.1134C73.9851 26.2195 71.273 22.8711 67.5534 22.0074C68.1746 19.8105 69.0382 17.7196 70.1291 15.7575C73.3791 17.7802 77.6594 17.3332 80.4169 14.5757C83.1669 11.8257 83.6139 7.53783 81.5912 4.29543ZM95.9471 21.7877C91.3487 21.7877 87.6138 25.5226 87.6138 30.121C87.6138 34.7195 91.3487 38.4543 95.9471 38.4543C100.546 38.4543 104.28 34.7195 104.28 30.121C104.28 25.5226 100.538 21.7877 95.9471 21.7877ZM95.9471 36.9392C92.1896 36.9392 89.129 33.8786 89.129 30.121C89.129 26.3635 92.1896 23.3029 95.9471 23.3029C99.7047 23.3029 102.765 26.3635 102.765 30.121C102.765 33.8786 99.7047 36.9392 95.9471 36.9392Z" fill="black"/>
</g>
</svg>
