<svg width="100" height="100" viewBox="0 0 100 100" fill="none" xmlns="http://www.w3.org/2000/svg">
<g id="Group">
<path id="Vector" d="M68.9059 81.8696L72.2038 62.0979C77.6967 57.882 82.9025 53.3686 87.0415 49.2296C92.955 43.3161 96.3247 36.7871 98.1352 30.5197L98.2839 30.3709L98.2018 30.2889C102.418 15.4152 97.9197 2.08538 97.9197 2.08538C97.9197 2.08538 84.5848 -2.41261 69.7163 1.8033L69.6342 1.72124L69.4855 1.86997C63.218 3.68558 56.689 7.0501 50.7755 12.9636C46.6365 17.1026 42.1231 22.3084 37.9072 27.8014L18.1356 31.0992L0 49.2296H24.3158C23.0695 51.912 22.1822 54.3739 21.7565 56.4818L43.5182 78.2435C45.6261 77.8178 48.088 76.9305 50.7704 75.6842V100L68.9059 81.8696ZM81.7844 1.55198C88.9853 1.36735 94.7091 2.76239 96.6837 3.3163C97.2427 5.29091 98.6327 11.0147 98.448 18.2156C98.3506 22.0109 97.8479 25.6267 96.9555 29.0477L70.9523 3.04448C74.3733 2.15206 77.984 1.64943 81.7844 1.55198ZM3.71328 47.691L18.8741 32.5302L36.5583 29.5811C31.968 35.7203 27.8342 42.1057 25.0595 47.6859H3.71328V47.691ZM44.0105 76.5561L23.4439 55.9895C26.0801 45.3471 40.3075 25.6011 51.8577 14.0458C56.8634 9.04008 62.6846 5.5217 69.2496 3.51633L96.4785 30.7453C94.4732 37.3102 90.9548 43.1315 85.949 48.1372C74.3989 59.6925 54.6529 73.9199 44.0105 76.5561ZM52.309 96.2867V74.9405C57.8892 72.1658 64.2746 68.032 70.4138 63.4417L67.4647 81.1259L52.309 96.2867Z" fill="white"/>
<path id="Vector_2" d="M76.158 23.8419C72.1524 19.8362 65.6593 19.8362 61.6536 23.8419C57.648 27.8475 57.648 34.3406 61.6536 38.3462C65.6593 42.3518 72.1524 42.3518 76.158 38.3462C80.1636 34.3406 80.1636 27.8475 76.158 23.8419ZM62.7409 37.2589C59.3405 33.8585 59.3405 28.3296 62.7409 24.9292C66.1414 21.5288 71.6702 21.5288 75.0707 24.9292C78.4711 28.3296 78.4711 33.8585 75.0707 37.2589C71.6702 40.6593 66.1414 40.6593 62.7409 37.2589Z" fill="white"/>
<path id="Vector_3" d="M18.6792 59.5642C18.3766 59.2616 17.8894 59.2616 17.5919 59.5642L3.08242 74.0686C2.77982 74.3712 2.77982 74.8584 3.08242 75.1559C3.38502 75.4585 3.87226 75.4585 4.16973 75.1559L18.6741 60.6515C18.9767 60.3541 18.9767 59.8668 18.6792 59.5642Z" fill="white"/>
<path id="Vector_4" d="M25.9314 74.0686C25.6288 73.766 25.1415 73.766 24.8441 74.0686L3.08242 95.8303C2.77982 96.1329 2.77982 96.6201 3.08242 96.9176C3.38502 97.2202 3.87226 97.2202 4.16973 96.9176L25.9314 75.1559C26.2289 74.8585 26.2289 74.3712 25.9314 74.0686Z" fill="white"/>
<path id="Vector_5" d="M40.4356 81.3258C40.133 81.0232 39.6457 81.0232 39.3483 81.3258L32.0961 88.578C31.7935 88.8806 31.7935 89.3678 32.0961 89.6653C32.3987 89.9679 32.8859 89.9679 33.1834 89.6653L40.4356 82.4131C40.7382 82.1105 40.7382 81.6233 40.4356 81.3258Z" fill="white"/>
</g>
</svg>
