<svg width="129" height="100" viewBox="0 0 129 100" fill="none" xmlns="http://www.w3.org/2000/svg">
<g id="Group 161">
<path id="Vector" d="M62.857 16.3928V83.5999L29.9999 70.4571V29.5356L62.857 16.3928ZM64.2856 14.2856L28.5713 28.5714V71.4285L64.2856 85.7142V14.2856Z" fill="white"/>
<path id="Vector_2" d="M14.2857 30.0001C17.4357 30.0001 20 32.5644 20 35.7144V64.2858C20 67.4358 17.4357 70.0001 14.2857 70.0001H7.14286C3.99286 70.0001 1.42857 67.4358 1.42857 64.2858V35.7144C1.42857 32.5644 3.99286 30.0001 7.14286 30.0001H14.2857ZM14.2857 28.5715H7.14286C3.2 28.5715 0 31.7715 0 35.7144V64.2858C0 68.2287 3.2 71.4287 7.14286 71.4287H14.2857C18.2286 71.4287 21.4286 68.2287 21.4286 64.2858V35.7144C21.4286 31.7715 18.2286 28.5715 14.2857 28.5715Z" fill="white"/>
<path id="Vector_3" d="M78.5716 1.42857C81.7216 1.42857 84.2859 3.99286 84.2859 7.14286V42.8571V44.2857H85.7144C88.8644 44.2857 91.4287 46.85 91.4287 50C91.4287 53.15 88.8644 55.7143 85.7144 55.7143H84.2859V57.1429V92.8571C84.2859 96.0071 81.7216 98.5714 78.5716 98.5714C75.4216 98.5714 72.8573 96.0071 72.8573 92.8571V7.14286C72.8573 3.99286 75.4216 1.42857 78.5716 1.42857ZM78.5716 0C74.6287 0 71.4287 3.2 71.4287 7.14286V92.8571C71.4287 96.8 74.6287 100 78.5716 100C82.5144 100 85.7144 96.8 85.7144 92.8571V57.1429C89.6573 57.1429 92.8573 53.9429 92.8573 50C92.8573 46.0571 89.6573 42.8571 85.7144 42.8571V7.14286C85.7144 3.2 82.5144 0 78.5716 0Z" fill="white"/>
<path id="Vector_4" d="M20.0002 80.0001V98.5715H8.57164V80.0001H20.0002ZM21.4288 78.5715H7.14307V100H21.4288V78.5715Z" fill="white"/>
<path id="Vector_5" d="M125 47.857C126.179 47.857 127.143 48.8213 127.143 49.9999C127.143 51.1785 126.179 52.1428 125 52.1428H103.571C102.393 52.1428 101.429 51.1785 101.429 49.9999C101.429 48.8213 102.393 47.857 103.571 47.857H125ZM125 46.4285H103.571C101.6 46.4285 100 48.0285 100 49.9999C100 51.9713 101.6 53.5713 103.571 53.5713H125C126.971 53.5713 128.571 51.9713 128.571 49.9999C128.571 48.0285 126.971 46.4285 125 46.4285Z" fill="white"/>
<path id="Vector_6" d="M114.286 19.2857C114.857 19.2857 115.393 19.5072 115.8 19.9143C116.636 20.75 116.636 22.1072 115.8 22.9429L101.514 37.2286C101.107 37.6357 100.571 37.8572 100 37.8572C99.4285 37.8572 98.8928 37.6357 98.4857 37.2286C97.65 36.3929 97.65 35.0357 98.4857 34.2L112.771 19.9143C113.179 19.5072 113.714 19.2857 114.286 19.2857ZM114.286 17.8572C113.371 17.8572 112.457 18.2072 111.757 18.9L97.4714 33.1857C96.0785 34.5786 96.0785 36.8429 97.4714 38.2357C98.1714 38.9357 99.0857 39.2786 100 39.2786C100.914 39.2786 101.829 38.9286 102.529 38.2357L116.814 23.95C118.207 22.5572 118.207 20.2929 116.814 18.9C116.114 18.2072 115.2 17.8572 114.286 17.8572Z" fill="white"/>
<path id="Vector_7" d="M100 62.1429C100.571 62.1429 101.107 62.3644 101.514 62.7715L115.8 77.0572C116.636 77.8929 116.636 79.2501 115.8 80.0858C115.393 80.4929 114.857 80.7144 114.286 80.7144C113.714 80.7144 113.179 80.4929 112.771 80.0858L98.4857 65.8001C97.65 64.9644 97.65 63.6072 98.4857 62.7715C98.8928 62.3644 99.4285 62.1429 100 62.1429ZM100 60.7144C99.0857 60.7144 98.1714 61.0644 97.4714 61.7572C96.0785 63.1501 96.0785 65.4144 97.4714 66.8072L111.757 81.0929C112.457 81.7929 113.371 82.1358 114.286 82.1358C115.2 82.1358 116.114 81.7858 116.814 81.0929C118.207 79.7001 118.207 77.4358 116.814 76.0429L102.529 61.7572C101.829 61.0644 100.914 60.7144 100 60.7144Z" fill="white"/>
</g>
</svg>
