<svg width="118" height="100" viewBox="0 0 118 100" fill="none" xmlns="http://www.w3.org/2000/svg">
<g id="Group">
<path id="Vector" d="M28.8292 28.8294L17.6468 40.0118L12.3468 34.7118C12.0233 34.3883 11.5056 34.3883 11.1821 34.7118C10.8586 35.0353 10.8586 35.553 11.1821 35.8765L17.0645 41.7589C17.2233 41.9177 17.435 42 17.6468 42C17.8586 42 18.0703 41.9177 18.2292 41.7589L29.9939 29.9941C30.3174 29.6706 30.3174 29.153 29.9939 28.8294C29.6703 28.5059 29.1527 28.5059 28.8292 28.8294Z" fill="white"/>
<path id="Vector_2" d="M28.8292 46.4765L17.6468 57.6589L12.3468 52.3589C12.0233 52.0354 11.5056 52.0354 11.1821 52.3589C10.8586 52.6824 10.8586 53.2001 11.1821 53.5236L17.0645 59.4059C17.2233 59.5648 17.435 59.6471 17.6468 59.6471C17.8586 59.6471 18.0703 59.5648 18.2292 59.4059L29.9939 47.6412C30.3174 47.3177 30.3174 46.8001 29.9939 46.4765C29.6703 46.153 29.1527 46.153 28.8292 46.4765Z" fill="white"/>
<path id="Vector_3" d="M28.8292 64.1235L17.6468 75.3059L12.3468 70.0059C12.0233 69.6823 11.5056 69.6823 11.1821 70.0059C10.8586 70.3294 10.8586 70.847 11.1821 71.1706L17.0645 77.0529C17.2233 77.2117 17.435 77.2941 17.6468 77.2941C17.8586 77.2941 18.0703 77.2117 18.2292 77.0529L29.9939 65.2882C30.3174 64.9647 30.3174 64.447 29.9939 64.1235C29.6703 63.8 29.1527 63.8 28.8292 64.1235Z" fill="white"/>
<path id="Vector_4" d="M35.2942 36.1176H58.8236C59.2766 36.1176 59.6472 35.7471 59.6472 35.2941C59.6472 34.8412 59.2766 34.4706 58.8236 34.4706H35.2942C34.8413 34.4706 34.4707 34.8412 34.4707 35.2941C34.4707 35.7471 34.8413 36.1176 35.2942 36.1176Z" fill="white"/>
<path id="Vector_5" d="M35.2942 53.7647H47.0589C47.5119 53.7647 47.8825 53.3941 47.8825 52.9412C47.8825 52.4883 47.5119 52.1177 47.0589 52.1177H35.2942C34.8413 52.1177 34.4707 52.4883 34.4707 52.9412C34.4707 53.3941 34.8413 53.7647 35.2942 53.7647Z" fill="white"/>
<path id="Vector_6" d="M52.9413 69.7646H35.2942C34.8413 69.7646 34.4707 70.1352 34.4707 70.5882C34.4707 71.0411 34.8413 71.4117 35.2942 71.4117H52.9413C53.3942 71.4117 53.7648 71.0411 53.7648 70.5882C53.7648 70.1352 53.3942 69.7646 52.9413 69.7646Z" fill="white"/>
<path id="Vector_7" d="M110.294 60.2941C114.353 60.2941 117.647 57 117.647 52.9412C117.647 48.8824 114.353 45.5882 110.294 45.5882C109.876 45.5882 109.471 45.6294 109.071 45.7C108.788 44.8882 108.465 44.0941 108.094 43.3294C108.424 43.0941 108.741 42.8412 109.035 42.5471C111.906 39.6765 111.906 35.0177 109.035 32.1471C107.6 30.7118 105.718 29.9941 103.835 29.9941C101.953 29.9941 100.071 30.7118 98.6353 32.1471C98.3412 32.4412 98.0824 32.7588 97.8529 33.0882C97.0882 32.7176 96.2941 32.3941 95.4824 32.1118C95.5471 31.7118 95.5941 31.3059 95.5941 30.8882C95.5941 26.8294 92.3 23.5353 88.2412 23.5353C84.1823 23.5353 80.8882 26.8294 80.8882 30.8882C80.8882 31.3059 80.9294 31.7118 81 32.1118C80.1882 32.3941 79.3941 32.7176 78.6294 33.0882C78.3941 32.7588 78.1412 32.4412 77.8471 32.1471C76.4118 30.7118 74.5294 29.9941 72.6471 29.9941C71.9588 29.9941 71.2647 30.0941 70.6 30.2882V11.7647H52.9412V5.88235H41.1765C41.1765 2.63529 38.5412 0 35.2941 0C32.0471 0 29.4118 2.63529 29.4118 5.88235H17.6471V11.7647H0V94.1177H70.5882V75.6C71.2588 75.7941 71.9471 75.8941 72.6353 75.8941C73.9647 75.8941 75.2941 75.5294 76.4706 74.8059V100L88.2353 88.2353L100 100V74.8059C101.171 75.5235 102.5 75.8941 103.835 75.8941C105.718 75.8941 107.6 75.1765 109.035 73.7412C111.906 70.8706 111.906 66.2118 109.035 63.3412C108.741 63.0471 108.424 62.7882 108.094 62.5588C108.465 61.7941 108.788 61 109.071 60.1882C109.471 60.2529 109.876 60.2941 110.294 60.2941ZM19.2941 7.52941H29.4118C30.3235 7.52941 31.0588 6.79412 31.0588 5.88235C31.0588 3.54706 32.9588 1.64706 35.2941 1.64706C37.6294 1.64706 39.5294 3.54706 39.5294 5.88235C39.5294 6.79412 40.2647 7.52941 41.1765 7.52941H51.2941V16H19.2941V7.52941ZM68.9412 92.4706H1.64706V13.4118H17.6471V17.6471H52.9412V13.4118H68.9412V30.9941C68.4059 31.3059 67.9 31.6824 67.4353 32.1412C64.5647 35.0118 64.5647 39.6706 67.4353 42.5412C67.7294 42.8353 68.0471 43.0941 68.3765 43.3235C68.0059 44.0882 67.6824 44.8824 67.4 45.6941C67 45.6294 66.5941 45.5824 66.1765 45.5824C62.1176 45.5824 58.8235 48.8765 58.8235 52.9353C58.8235 56.9941 62.1176 60.2882 66.1765 60.2882C66.5941 60.2882 67 60.2471 67.4 60.1765C67.6824 60.9882 68.0059 61.7824 68.3765 62.5471C68.0471 62.7824 67.7294 63.0353 67.4353 63.3294C64.5647 66.2 64.5647 70.8588 67.4353 73.7294C67.8941 74.1882 68.4 74.5647 68.9412 74.8765V92.4706ZM89.4 87.0706C89.0765 86.7471 88.6588 86.5882 88.2353 86.5882C87.8118 86.5882 87.3941 86.7471 87.0706 87.0706L78.1176 96.0235V73.4294C78.2941 73.2235 78.4647 73.0177 78.6235 72.8C79.3882 73.1706 80.1824 73.4941 80.9941 73.7765C80.9294 74.1765 80.8823 74.5824 80.8823 75C80.8823 79.0588 84.1765 82.3529 88.2353 82.3529C92.2941 82.3529 95.5882 79.0588 95.5882 75C95.5882 74.5824 95.5471 74.1765 95.4765 73.7765C96.2882 73.4941 97.0823 73.1706 97.8471 72.8C98 73.0177 98.1706 73.2235 98.3529 73.4294V96.0235L89.4 87.0706ZM107.518 59.6412C107.253 60.4118 106.947 61.1471 106.612 61.8353C106.259 62.5588 106.482 63.4294 107.135 63.8941C107.424 64.1 107.665 64.3 107.865 64.5C110.088 66.7235 110.088 70.3471 107.865 72.5706C106.788 73.6471 105.353 74.2412 103.829 74.2412C102.306 74.2412 100.871 73.6471 99.7941 72.5706C99.5882 72.3647 99.3882 72.1294 99.1882 71.8412C98.8706 71.3941 98.3647 71.1529 97.8471 71.1529C97.6059 71.1529 97.3588 71.2059 97.1294 71.3176C96.4412 71.6529 95.7059 71.9529 94.9353 72.2235C94.1765 72.4882 93.7176 73.2588 93.8529 74.0529C93.9118 74.4 93.9412 74.7118 93.9412 75.0059C93.9412 78.1529 91.3823 80.7118 88.2353 80.7118C85.0882 80.7118 82.5294 78.1529 82.5294 75.0059C82.5294 74.7177 82.5588 74.4059 82.6176 74.0529C82.7529 73.2588 82.2941 72.4882 81.5353 72.2235C80.7647 71.9588 80.0294 71.6529 79.3412 71.3176C79.1118 71.2059 78.8647 71.1529 78.6235 71.1529C78.1059 71.1529 77.6 71.4 77.2823 71.8412C77.0765 72.1294 76.8765 72.3706 76.6765 72.5706C75.6 73.6471 74.1647 74.2412 72.6412 74.2412C71.1176 74.2412 69.6824 73.6471 68.6059 72.5706C66.3823 70.3471 66.3823 66.7235 68.6059 64.5C68.8118 64.2941 69.0471 64.0941 69.3353 63.8941C69.9882 63.4294 70.2118 62.5588 69.8588 61.8353C69.5235 61.1471 69.2235 60.4118 68.9529 59.6412C68.7176 58.9706 68.0882 58.5353 67.4 58.5353C67.3118 58.5353 67.2176 58.5412 67.1235 58.5588C66.7765 58.6177 66.4647 58.6471 66.1706 58.6471C63.0235 58.6471 60.4647 56.0882 60.4647 52.9412C60.4647 49.7941 63.0235 47.2353 66.1706 47.2353C66.4588 47.2353 66.7706 47.2647 67.1235 47.3235C67.2176 47.3412 67.3059 47.3471 67.3941 47.3471C68.0824 47.3471 68.7176 46.9118 68.9471 46.2412C69.2118 45.4706 69.5176 44.7353 69.8529 44.0471C70.2059 43.3235 69.9823 42.4529 69.3294 41.9882C69.0412 41.7824 68.8 41.5824 68.6 41.3824C66.3765 39.1588 66.3765 35.5353 68.6 33.3118C69.6765 32.2353 71.1118 31.6412 72.6353 31.6412C74.1588 31.6412 75.5941 32.2353 76.6706 33.3118C76.8765 33.5177 77.0765 33.7529 77.2765 34.0412C77.5941 34.4882 78.1 34.7294 78.6176 34.7294C78.8588 34.7294 79.1059 34.6765 79.3353 34.5647C80.0235 34.2294 80.7588 33.9294 81.5294 33.6588C82.2882 33.3941 82.7471 32.6235 82.6118 31.8294C82.5529 31.4824 82.5235 31.1706 82.5235 30.8765C82.5235 27.7294 85.0824 25.1706 88.2294 25.1706C91.3765 25.1706 93.9353 27.7294 93.9353 30.8765C93.9353 31.1647 93.9059 31.4765 93.847 31.8294C93.7118 32.6235 94.1706 33.3941 94.9294 33.6588C95.7 33.9235 96.4353 34.2294 97.1235 34.5647C97.3529 34.6765 97.6 34.7294 97.8412 34.7294C98.3588 34.7294 98.8647 34.4824 99.1824 34.0412C99.3882 33.7529 99.5882 33.5118 99.7882 33.3118C100.865 32.2353 102.3 31.6412 103.824 31.6412C105.347 31.6412 106.782 32.2353 107.859 33.3118C110.082 35.5353 110.082 39.1588 107.859 41.3824C107.653 41.5882 107.418 41.7882 107.129 41.9882C106.476 42.4529 106.253 43.3235 106.606 44.0471C106.941 44.7353 107.241 45.4706 107.512 46.2412C107.747 46.9118 108.376 47.3471 109.065 47.3471C109.153 47.3471 109.247 47.3412 109.335 47.3235C109.682 47.2647 109.994 47.2353 110.288 47.2353C113.435 47.2353 115.994 49.7941 115.994 52.9412C115.994 56.0882 113.435 58.6471 110.288 58.6471C110 58.6471 109.688 58.6177 109.335 58.5588C109.241 58.5412 109.153 58.5353 109.059 58.5353C108.382 58.5353 107.747 58.9706 107.518 59.6412Z" fill="white"/>
<path id="Vector_8" d="M88.2354 35.2942C78.4884 35.2942 70.5884 43.1942 70.5884 52.9412C70.5884 62.6883 78.4884 70.5883 88.2354 70.5883C97.9825 70.5883 105.882 62.6883 105.882 52.9412C105.882 43.1942 97.9825 35.2942 88.2354 35.2942ZM88.2354 68.9412C79.4119 68.9412 72.2354 61.7648 72.2354 52.9412C72.2354 44.1177 79.4119 36.9412 88.2354 36.9412C97.059 36.9412 104.235 44.1177 104.235 52.9412C104.235 61.7648 97.059 68.9412 88.2354 68.9412Z" fill="white"/>
</g>
</svg>
